<svg viewBox="0 0 343.3 489.81" xmlns="http://www.w3.org/2000/svg"><g id="Capa_2" data-name="Capa 2"><g id="Capa_2-2" data-name="Capa 2"><path d="m342.46 489.81h-341.62v-489.81h256.81l84.81 83.72z" fill="#eaeaea"/><path d="m256.92 84.81h84.81l-84.81-84.81z" fill="#c9c9c9"/><path d="m0 384.49h343.3v105.32h-343.3z" fill="#d9251c"/><g fill="#fff"><path d="m97.33 407.37h22.75c11.69 0 19.62 6.58 19.62 17 0 12-9 17.43-19.9 17.43h-10.57v20.54h-11.9zm11.9 25h9.08c5.5 0 9.39-2.11 9.39-7.73s-4.1-7.79-9.14-7.79h-9.33z"/><path d="m150.25 407.37h21.81c16 0 26.49 10.55 26.49 26.81 0 16-10.16 28.19-27 28.19h-21.3zm11.89 45.39h8.92c10.54 0 15.2-7.84 15.2-18.55 0-9-4.36-17.23-15.13-17.23h-9z"/><path d="m210.53 407.37h38.39v9.75h-26.78v13.47h25.09v9.75h-25.09v22h-11.61z"/></g><path d="m147.56 232.87v92.67h48.79v-92.67h31.92l-56.42-56.43-56.43 56.43z" fill="#c9c9c9"/><path d="m91.42 125.9h163v18h-163z" fill="#c9c9c9"/></g></g></svg>