<?xml version="1.0" encoding="iso-8859-1"?>
<!-- Generator: Adobe Illustrator 19.0.0, SVG Export Plug-In . SVG Version: 6.00 Build 0)  -->
<svg version="1.1" id="Layer_1" xmlns="http://www.w3.org/2000/svg" xmlns:xlink="http://www.w3.org/1999/xlink" x="0px" y="0px"
	 viewBox="0 0 489.143 489.143" style="enable-background:new 0 0 489.143 489.143;" xml:space="preserve">
<g>
	<path style="fill:#9BFBFF;" d="M192.038,344.077c0,0,0-132.039,0-132.039h-61.616v-40h61.616V40
		c-49.777,0-94.043,24.045-121.794,61.129c-1.461,1.952-2.875,3.94-4.243,5.962c-2.735,4.045-5.281,8.228-7.624,12.536
		C46.661,141.169,40,165.841,40,192.039c0,26.198,6.661,50.87,18.377,72.411c2.344,4.308,4.889,8.491,7.624,12.536
		c1.367,2.022,2.782,4.01,4.243,5.962C97.995,320.033,142.262,344.077,192.038,344.077z"/>
	<path style="fill:#46F8FF;" d="M253.654,172.039v40h-61.616v132.039c52.397,0,98.688-26.642,126.037-67.091
		c2.735-4.045,5.281-8.228,7.624-12.536c2.343-4.308,4.484-8.742,6.41-13.287c4.815-11.365,8.286-23.432,10.212-36.001
		c0.385-2.514,0.709-5.048,0.969-7.6c0.52-5.105,0.786-10.283,0.786-15.523c0-5.24-0.266-10.418-0.786-15.523
		c-0.26-2.552-0.583-5.086-0.969-7.6c-1.926-12.569-5.397-24.636-10.212-36.001c-1.926-4.546-4.067-8.979-6.41-13.287
		c-2.343-4.308-4.889-8.491-7.624-12.536C290.726,66.643,244.435,40,192.039,40v132.039H253.654z"/>
	<polygon style="fill:#2488FF;" points="253.654,172.039 192.039,172.039 130.423,172.039 130.423,212.039 192.039,212.039 
		253.654,212.039 	"/>
	<path style="fill:#005ECE;" d="M489.143,460.858L341.168,312.884c-8.425,10.377-17.907,19.86-28.285,28.285l147.974,147.974
		L489.143,460.858z"/>
	<path style="fill:#2488FF;" d="M341.168,312.884c26.813-33.026,42.909-75.088,42.909-120.845C384.077,86.148,297.929,0,192.038,0
		S0,86.148,0,192.039s86.147,192.039,192.038,192.039c45.757,0,87.82-16.095,120.846-42.909
		C323.261,332.743,332.744,323.261,341.168,312.884z M70.244,282.948c-1.461-1.952-2.875-3.94-4.243-5.962
		c-2.735-4.045-5.281-8.228-7.624-12.536C46.661,242.909,40,218.237,40,192.039c0-26.198,6.661-50.87,18.377-72.411
		c2.343-4.308,4.889-8.491,7.624-12.536c1.367-2.022,2.782-4.01,4.243-5.962C97.995,64.045,142.262,40,192.038,40
		c52.397,0,98.688,26.642,126.038,67.091c2.735,4.045,5.281,8.228,7.624,12.536c2.343,4.308,4.484,8.742,6.41,13.287
		c4.815,11.365,8.286,23.432,10.212,36.001c0.385,2.514,0.709,5.048,0.969,7.6c0.52,5.105,0.786,10.283,0.786,15.523
		c0,5.24-0.266,10.418-0.786,15.523c-0.26,2.552-0.583,5.086-0.969,7.6c-1.926,12.569-5.397,24.636-10.212,36.001
		c-1.926,4.546-4.067,8.979-6.41,13.287c-2.343,4.308-4.889,8.491-7.624,12.536c-27.35,40.449-73.641,67.091-126.037,67.091
		C142.262,344.077,97.995,320.033,70.244,282.948z"/>
</g>
<g>
</g>
<g>
</g>
<g>
</g>
<g>
</g>
<g>
</g>
<g>
</g>
<g>
</g>
<g>
</g>
<g>
</g>
<g>
</g>
<g>
</g>
<g>
</g>
<g>
</g>
<g>
</g>
<g>
</g>
</svg>
