<svg id="Outline" enable-background="new 0 0 32 32" viewBox="0 0 32 32" xmlns="http://www.w3.org/2000/svg"><g><path d="m22.42578 18.77014c.36804-.85034.57422-1.78625.57422-2.77014 0-3.85986-3.14014-7-7-7s-7 3.14014-7 7c0 3.85938 3.14014 7 7 7 .9837 0 1.91943-.20605 2.76959-.57391l5.65912 6.24579c.18408.20215.44287.32129.7168.32812h.02441c.26465 0 .51953-.10547.70703-.29297l2.83008-2.83008c.19385-.19336.29932-.45801.29248-.73145-.00635-.27344-.125-.5332-.32812-.7168zm-11.42578-2.77014c0-2.75684 2.24316-5 5-5s5 2.24316 5 5-2.24316 5-5 5-5-2.24316-5-5zm14.20557 10.5498-4.70654-5.19482c.30927-.26031.59558-.54675.8559-.85602l5.19537 4.70709z"/><path d="m18 15h-1v-1c0-.55225-.44775-1-1-1s-1 .44775-1 1v1h-1c-.55225 0-1 .44775-1 1s.44775 1 1 1h1v1c0 .55273.44775 1 1 1s1-.44727 1-1v-1h1c.55225 0 1-.44775 1-1s-.44775-1-1-1z"/><path d="m28.92279 3.61786c-.10138-.24445-.2962-.43927-.54065-.54065-.12225-.0506-.25189-.07721-.38214-.07721h-4c-.55225 0-1 .44775-1 1s.44775 1 1 1h1.58594l-3.20605 3.20605c-.39062.39062-.39062 1.02344 0 1.41406.19531.19531.45117.29297.70703.29297s.51172-.09766.70703-.29297l3.20605-3.20605v1.58594c0 .55225.44775 1 1 1s1-.44775 1-1v-4c0-.13025-.02661-.25989-.07721-.38214z"/><path d="m8.29395 22.31055-3.28467 3.28436v-1.58612c0-.55273-.44775-1-1-1s-1 .44727-1 1v4c0 .13019.02661.25989.07715.38208.10132.24469.2962.43951.54083.54083.12219.05054.25183.07709.38202.07709h4c.55225 0 1-.44727 1-1s-.44775-1-1-1h-1.58576l3.28448-3.28418c.39062-.39062.39062-1.02344 0-1.41406s-1.02343-.39063-1.41405 0z"/></g></svg>