<svg id="Outline" enable-background="new 0 0 32 32" viewBox="0 0 32 32" xmlns="http://www.w3.org/2000/svg"><path d="m22.42609 18.76959c.36786-.85016.57391-1.78589.57391-2.76959 0-3.85986-3.14062-7-7-7s-7 3.14014-7 7 3.14062 7 7 7c.98389 0 1.9198-.20618 2.77014-.57422l5.65857 6.24561c.18359.20312.44336.32178.7168.32812.00781.00049.0166.00049.02441.00049.26465 0 .51953-.10498.70703-.29297l2.83008-2.83008c.19336-.19336.2998-.45801.29297-.73145-.00684-.27393-.12598-.53271-.32812-.7168zm-11.42609-2.76959c0-2.75684 2.24316-5 5-5s5 2.24316 5 5-2.24316 5-5 5-5-2.24316-5-5zm14.20605 10.55029-4.70709-5.19537c.30927-.26031.5957-.54663.85602-.8559l5.19482 4.70654zm-6.20605-10.55029c0 .55225-.44727 1-1 1h-4c-.55273 0-1-.44775-1-1s.44727-1 1-1h4c.55273 0 1 .44775 1 1zm-9.07605 6.63568c.05054.12213.07703.25177.07703.3819v4c0 .55225-.44727 1-1 1s-1-.44775-1-1v-1.58612l-3.28516 3.28485c-.19531.19531-.45117.29297-.70703.29297s-.51172-.09766-.70703-.29297c-.39062-.39062-.39062-1.02344 0-1.41406l3.28497-3.28467h-1.58575c-.55273 0-1-.44775-1-1s.44727-1 1-1h4c.13019 0 .25989.02655.38208.07709.24475.10137.43957.29626.54089.54101zm12.24005-13.34058c-.05054-.12219-.07709-.25183-.07709-.38202v-4c0-.55225.44727-1 1-1s1 .44775 1 1v1.58594l3.20605-3.20605c.39062-.39062 1.02344-.39062 1.41406 0s.39062 1.02344 0 1.41406l-3.20605 3.20605h1.58594c.55273 0 1 .44775 1 1s-.44727 1-1 1h-4c-.13019 0-.25989-.02661-.38208-.07715-.24469-.10131-.43951-.2962-.54083-.54083z"/></svg>