<?xml version="1.0" encoding="iso-8859-1"?>
<!-- Generator: Adobe Illustrator 19.0.0, SVG Export Plug-In . SVG Version: 6.00 Build 0)  -->
<svg version="1.1" id="Layer_1" xmlns="http://www.w3.org/2000/svg" xmlns:xlink="http://www.w3.org/1999/xlink" x="0px" y="0px"
	 viewBox="0 0 489.143 489.143" style="enable-background:new 0 0 489.143 489.143;" xml:space="preserve">
<g>
	<path style="fill:#9BFBFF;" d="M172.039,253.655v-41.616h-41.616v-40h41.616v-41.616h20V40C108.204,40,40,108.204,40,192.039
		s68.204,152.039,152.039,152.039v-90.422H172.039z"/>
	<path style="fill:#46F8FF;" d="M192.039,40v90.423h20v41.616h41.616v40h-41.616v41.616h-20v90.422
		c83.834,0,152.039-68.204,152.039-152.039S275.873,40,192.039,40z"/>
	<polygon style="fill:#2488FF;" points="172.039,172.039 130.422,172.039 130.422,212.039 172.039,212.039 172.039,253.655 
		192.039,253.655 212.039,253.655 212.039,212.039 253.654,212.039 253.654,172.039 212.039,172.039 212.039,130.423 
		192.039,130.423 172.039,130.423 	"/>
	<path style="fill:#005ECE;" d="M489.143,460.858L341.168,312.884c-8.425,10.377-17.907,19.86-28.285,28.285l147.974,147.974
		L489.143,460.858z"/>
	<path style="fill:#2488FF;" d="M341.168,312.884c26.813-33.026,42.909-75.088,42.909-120.845C384.077,86.148,297.929,0,192.039,0
		C86.148,0,0,86.148,0,192.039s86.148,192.039,192.039,192.039c45.757,0,87.819-16.095,120.845-42.909
		C323.261,332.743,332.744,323.261,341.168,312.884z M192.039,344.077C108.204,344.077,40,275.873,40,192.039S108.204,40,192.039,40
		s152.039,68.204,152.039,152.039S275.873,344.077,192.039,344.077z"/>
</g>
<g>
</g>
<g>
</g>
<g>
</g>
<g>
</g>
<g>
</g>
<g>
</g>
<g>
</g>
<g>
</g>
<g>
</g>
<g>
</g>
<g>
</g>
<g>
</g>
<g>
</g>
<g>
</g>
<g>
</g>
</svg>
